# xmcd
# 
# Track frame offsets:
#     150
#     12792
#     36580
#     52622
#     70987
#     83535
#     107836
#     123596
#     143817
#     160691
#     180786
#     199905
# 
# Disc length: 2965
# 
# Revision: 16
# Processed by: cddbd v1.5.2PL0 Copyright (c) Steve Scherf et al.
# Submitted via: fre:ac v1.0.31
# 
DISCID=940b930c
DTITLE=Buddy Guy - The Perfect Blues Collection [disc 25] Buddy Guy^ Blues Singer
DYEAR=2011
DGENRE=Blues
TTITLE0=Hard Time Killing Floor
TTITLE1=Crawlin' Kingsnake
TTITLE2=Lucy Mae Blues
TTITLE3=Can't See Baby
TTITLE4=I Love the Life I Live
TTITLE5=Louise McGhee
TTITLE6=Moanin' and Groanin'
TTITLE7=Black Cat Blues
TTITLE8=Bad Life Blues
TTITLE9=Sally Mae
TTITLE10=Anna Lee
TTITLE11=Lonesome Home Blues
EXTD=
EXTT0=
EXTT1=
EXTT2=
EXTT3=
EXTT4=
EXTT5=
EXTT6=
EXTT7=
EXTT8=
EXTT9=
EXTT10=
EXTT11=
PLAYORDER=
